<?xml version="1.0" encoding="UTF-8" standalone="no"?><svg xmlns="http://www.w3.org/2000/svg" xmlns:xlink="http://www.w3.org/1999/xlink" contentScriptType="application/ecmascript" contentStyleType="text/css" height="178.125px" preserveAspectRatio="none" style="width:681px;height:178px;" version="1.1" viewBox="0 0 681 178" width="681.25px" zoomAndPan="magnify"><defs><filter height="300%" id="fn85twi15rnrq" width="300%" x="-1" y="-1"><feGaussianBlur result="blurOut" stdDeviation="6.25"/><feColorMatrix in="blurOut" result="blurOut2" type="matrix" values="0 0 0 0 0 0 0 0 0 0 0 0 0 0 0 0 0 0 .4 0"/><feOffset dx="12.5" dy="12.5" in="blurOut2" result="blurOut3"/><feBlend in="SourceGraphic" in2="blurOut3" mode="normal"/></filter></defs><g><!--MD5=[4f2f83bc8e3d0872e71f6b52be921d5c]
class idp--><rect fill="#F8F8FF" filter="url(#fn85twi15rnrq)" height="124.9023" id="idp" rx="15.625" ry="15.625" style="stroke: #000000; stroke-width: 4.6875;" width="625" x="21.875" y="21.875"/><path d="M148.4375,46.7773 L147.85,47.0711 L136.9125,51.6617 L135.9344,52.0523 L135.9344,53.0305 C135.9344,58.2086 138.0156,62.7867 140.525,66.118 C141.7781,67.7836 143.1125,69.1461 144.4313,70.1211 C145.75,71.0992 147.0125,71.7805 148.4344,71.7805 C149.8563,71.7805 151.1219,71.0961 152.4375,70.1211 C153.7563,69.143 155.0906,67.7805 156.3438,66.118 C158.8531,62.7898 160.9344,58.2117 160.9344,53.0305 L160.9344,52.0523 L159.9563,51.6617 L149.0188,47.0711 L148.4313,46.7773 M148.4313,50.1961 L148.4313,68.6523 C148.2906,68.6523 147.4063,68.4367 146.3813,67.6742 C145.3563,66.9117 144.15,65.7023 143.0594,64.2555 C141.0531,61.5961 139.5063,57.9273 139.25,54.0023 L148.4313,50.193 " fill="#000000" style="stroke: ; stroke-width: 0.0; stroke-dasharray: ;"/><text fill="#000000" font-family="sans-serif" font-size="37.5" lengthAdjust="spacingAndGlyphs" textLength="0" x="176.5625" y="72.3083"/><path d="M190.625,46.7773 L189.0625,50.4898 L188.1844,50.8805 L184.4719,49.318 L182.225,51.5648 L183.7875,55.2773 L183.3969,56.1555 L179.6844,57.718 L179.6844,60.843 L183.3969,62.4055 L183.7875,63.3836 L182.225,66.9961 L184.4719,69.243 L188.1844,67.6805 L189.0625,68.0711 L190.625,71.7836 L193.75,71.7836 L195.3125,68.0711 L196.1906,67.6805 L199.9031,69.243 L202.15,66.9961 L200.5875,63.2836 L200.9781,62.4055 L204.6906,60.843 L204.6906,57.718 L200.9781,56.1555 L200.5875,55.2773 L202.0531,51.5648 L199.9031,49.318 L196.1906,50.8805 L195.3125,50.4898 L193.75,46.7773 L190.625,46.7773 M192.1875,54.5898 C194.7813,54.5898 196.875,56.6836 196.875,59.2773 C196.875,61.8711 194.7813,63.9648 192.1875,63.9648 C189.5938,63.9648 187.5,61.8711 187.5,59.2773 C187.5,56.6836 189.5938,54.5898 192.1875,54.5898 " fill="#000000" style="stroke: ; stroke-width: 0.0; stroke-dasharray: ;"/><text fill="#000000" font-family="sans-serif" font-size="37.5" lengthAdjust="spacingAndGlyphs" textLength="315.625" x="220.3125" y="72.3083">Identity Provider</text><line style="stroke: #000000; stroke-width: 4.6875;" x1="25" x2="643.75" y1="96.7773" y2="96.7773"/><line style="stroke: #000000; stroke-width: 4.6875;" x1="25" x2="643.75" y1="121.7773" y2="121.7773"/><!--MD5=[08ad1a50f0d2299dc9b25b1983f45ed6]
@startuml idp

hide circle

skinparam {
    MinClassWidth 200
    ClassBackgroundColor ghostwhite
    ClassBorderColor black
    RoundCorner 10

    dpi 300
    scale 200*100
}
class "<&shield> <&cog> Identity Provider" as idp {

}
@enduml

PlantUML version 1.2020.05(Thu Mar 19 14:17:32 PDT 2020)
(GPL source distribution)
Java Runtime: OpenJDK Runtime Environment
JVM: OpenJDK 64-Bit Server VM
Java Version: 11.0.7+10-post-Ubuntu-2ubuntu218.04
Operating System: Linux
Default Encoding: UTF-8
Language: en
Country: US
--></g></svg>