<?xml version="1.0" encoding="UTF-8" standalone="no"?><svg xmlns="http://www.w3.org/2000/svg" xmlns:xlink="http://www.w3.org/1999/xlink" contentScriptType="application/ecmascript" contentStyleType="text/css" height="178.125px" preserveAspectRatio="none" style="width:681px;height:178px;" version="1.1" viewBox="0 0 681 178" width="681.25px" zoomAndPan="magnify"><defs><filter height="300%" id="fbert929adk3h" width="300%" x="-1" y="-1"><feGaussianBlur result="blurOut" stdDeviation="6.25"/><feColorMatrix in="blurOut" result="blurOut2" type="matrix" values="0 0 0 0 0 0 0 0 0 0 0 0 0 0 0 0 0 0 .4 0"/><feOffset dx="12.5" dy="12.5" in="blurOut2" result="blurOut3"/><feBlend in="SourceGraphic" in2="blurOut3" mode="normal"/></filter></defs><g><!--MD5=[8166bb41a301ca6ac2d71c494a72e37d]
class proxy--><rect fill="#F8F8FF" filter="url(#fbert929adk3h)" height="124.9023" id="proxy" rx="15.625" ry="15.625" style="stroke: #000000; stroke-width: 4.6875;" width="625" x="21.875" y="21.875"/><path d="M254.6875,46.7773 L254.1,47.0711 L243.1625,51.6617 L242.1844,52.0523 L242.1844,53.0305 C242.1844,58.2086 244.2656,62.7867 246.775,66.118 C248.0281,67.7836 249.3625,69.1461 250.6813,70.1211 C252,71.0992 253.2625,71.7805 254.6844,71.7805 C256.1063,71.7805 257.3719,71.0961 258.6875,70.1211 C260.0063,69.143 261.3406,67.7805 262.5938,66.118 C265.1031,62.7898 267.1844,58.2117 267.1844,53.0305 L267.1844,52.0523 L266.2063,51.6617 L255.2688,47.0711 L254.6813,46.7773 M254.6813,50.1961 L254.6813,68.6523 C254.5406,68.6523 253.6563,68.4367 252.6313,67.6742 C251.6063,66.9117 250.4,65.7023 249.3094,64.2555 C247.3031,61.5961 245.7563,57.9273 245.5,54.0023 L254.6813,50.193 " fill="#000000" style="stroke: ; stroke-width: 0.0; stroke-dasharray: ;"/><text fill="#000000" font-family="sans-serif" font-size="37.5" lengthAdjust="spacingAndGlyphs" textLength="0" x="282.8125" y="72.3083"/><path d="M296.875,46.7773 L295.3125,50.4898 L294.4344,50.8805 L290.7219,49.318 L288.475,51.5648 L290.0375,55.2773 L289.6469,56.1555 L285.9344,57.718 L285.9344,60.843 L289.6469,62.4055 L290.0375,63.3836 L288.475,66.9961 L290.7219,69.243 L294.4344,67.6805 L295.3125,68.0711 L296.875,71.7836 L300,71.7836 L301.5625,68.0711 L302.4406,67.6805 L306.1531,69.243 L308.4,66.9961 L306.8375,63.2836 L307.2281,62.4055 L310.9406,60.843 L310.9406,57.718 L307.2281,56.1555 L306.8375,55.2773 L308.3031,51.5648 L306.1531,49.318 L302.4406,50.8805 L301.5625,50.4898 L300,46.7773 L296.875,46.7773 M298.4375,54.5898 C301.0313,54.5898 303.125,56.6836 303.125,59.2773 C303.125,61.8711 301.0313,63.9648 298.4375,63.9648 C295.8438,63.9648 293.75,61.8711 293.75,59.2773 C293.75,56.6836 295.8438,54.5898 298.4375,54.5898 " fill="#000000" style="stroke: ; stroke-width: 0.0; stroke-dasharray: ;"/><text fill="#000000" font-family="sans-serif" font-size="37.5" lengthAdjust="spacingAndGlyphs" textLength="103.125" x="326.5625" y="72.3083">Proxy</text><line style="stroke: #000000; stroke-width: 4.6875;" x1="25" x2="643.75" y1="96.7773" y2="96.7773"/><line style="stroke: #000000; stroke-width: 4.6875;" x1="25" x2="643.75" y1="121.7773" y2="121.7773"/><!--MD5=[3ea75b99d7cbbcb56bba9b522f2ef6d3]
@startuml proxy

hide circle

skinparam {
    MinClassWidth 200
    ClassBackgroundColor ghostwhite
    ClassBorderColor black
    RoundCorner 10

    dpi 300
    scale 200*100
}
class "<&shield> <&cog> Proxy" as proxy {

}
@enduml

PlantUML version 1.2020.05(Thu Mar 19 14:17:32 PDT 2020)
(GPL source distribution)
Java Runtime: OpenJDK Runtime Environment
JVM: OpenJDK 64-Bit Server VM
Java Version: 11.0.7+10-post-Ubuntu-2ubuntu218.04
Operating System: Linux
Default Encoding: UTF-8
Language: en
Country: US
--></g></svg>