<?xml version="1.0" encoding="UTF-8" standalone="no"?><svg xmlns="http://www.w3.org/2000/svg" xmlns:xlink="http://www.w3.org/1999/xlink" contentScriptType="application/ecmascript" contentStyleType="text/css" height="178.125px" preserveAspectRatio="none" style="width:681px;height:178px;" version="1.1" viewBox="0 0 681 178" width="681.25px" zoomAndPan="magnify"><defs><filter height="300%" id="f1ayoufsxid399" width="300%" x="-1" y="-1"><feGaussianBlur result="blurOut" stdDeviation="6.25"/><feColorMatrix in="blurOut" result="blurOut2" type="matrix" values="0 0 0 0 0 0 0 0 0 0 0 0 0 0 0 0 0 0 .4 0"/><feOffset dx="12.5" dy="12.5" in="blurOut2" result="blurOut3"/><feBlend in="SourceGraphic" in2="blurOut3" mode="normal"/></filter></defs><g><!--MD5=[6d8b0ed53f72114334f2d8e71f85c111]
class sp--><rect fill="#F8F8FF" filter="url(#f1ayoufsxid399)" height="124.9023" id="sp" rx="15.625" ry="15.625" style="stroke: #000000; stroke-width: 4.6875;" width="625" x="21.875" y="21.875"/><path d="M150,46.7773 L149.4125,47.0711 L138.475,51.6617 L137.4969,52.0523 L137.4969,53.0305 C137.4969,58.2086 139.5781,62.7867 142.0875,66.118 C143.3406,67.7836 144.675,69.1461 145.9938,70.1211 C147.3125,71.0992 148.575,71.7805 149.9969,71.7805 C151.4188,71.7805 152.6844,71.0961 154,70.1211 C155.3188,69.143 156.6531,67.7805 157.9063,66.118 C160.4156,62.7898 162.4969,58.2117 162.4969,53.0305 L162.4969,52.0523 L161.5188,51.6617 L150.5813,47.0711 L149.9938,46.7773 M149.9938,50.1961 L149.9938,68.6523 C149.8531,68.6523 148.9688,68.4367 147.9438,67.6742 C146.9188,66.9117 145.7125,65.7023 144.6219,64.2555 C142.6156,61.5961 141.0688,57.9273 140.8125,54.0023 L149.9938,50.193 " fill="#000000" style="stroke: ; stroke-width: 0.0; stroke-dasharray: ;"/><text fill="#000000" font-family="sans-serif" font-size="37.5" lengthAdjust="spacingAndGlyphs" textLength="0" x="178.125" y="72.3083"/><path d="M192.1875,46.7773 L190.625,50.4898 L189.7469,50.8805 L186.0344,49.318 L183.7875,51.5648 L185.35,55.2773 L184.9594,56.1555 L181.2469,57.718 L181.2469,60.843 L184.9594,62.4055 L185.35,63.3836 L183.7875,66.9961 L186.0344,69.243 L189.7469,67.6805 L190.625,68.0711 L192.1875,71.7836 L195.3125,71.7836 L196.875,68.0711 L197.7531,67.6805 L201.4656,69.243 L203.7125,66.9961 L202.15,63.2836 L202.5406,62.4055 L206.2531,60.843 L206.2531,57.718 L202.5406,56.1555 L202.15,55.2773 L203.6156,51.5648 L201.4656,49.318 L197.7531,50.8805 L196.875,50.4898 L195.3125,46.7773 L192.1875,46.7773 M193.75,54.5898 C196.3438,54.5898 198.4375,56.6836 198.4375,59.2773 C198.4375,61.8711 196.3438,63.9648 193.75,63.9648 C191.1563,63.9648 189.0625,61.8711 189.0625,59.2773 C189.0625,56.6836 191.1563,54.5898 193.75,54.5898 " fill="#000000" style="stroke: ; stroke-width: 0.0; stroke-dasharray: ;"/><text fill="#000000" font-family="sans-serif" font-size="37.5" lengthAdjust="spacingAndGlyphs" textLength="312.5" x="221.875" y="72.3083">Service Provider</text><line style="stroke: #000000; stroke-width: 4.6875;" x1="25" x2="643.75" y1="96.7773" y2="96.7773"/><line style="stroke: #000000; stroke-width: 4.6875;" x1="25" x2="643.75" y1="121.7773" y2="121.7773"/><!--MD5=[658d0bcf9d30cc5526d375dfb6aafe06]
@startuml sp

hide circle

skinparam {
    MinClassWidth 200
    ClassBackgroundColor ghostwhite
    ClassBorderColor black
    RoundCorner 10

    dpi 300
    scale 200*100
}
class "<&shield> <&cog> Service Provider" as sp {

}
@enduml

PlantUML version 1.2020.05(Thu Mar 19 14:17:32 PDT 2020)
(GPL source distribution)
Java Runtime: OpenJDK Runtime Environment
JVM: OpenJDK 64-Bit Server VM
Java Version: 11.0.7+10-post-Ubuntu-2ubuntu218.04
Operating System: Linux
Default Encoding: UTF-8
Language: en
Country: US
--></g></svg>